<svg width="863" height="160" viewBox="0 0 863 160" fill="none" xmlns="http://www.w3.org/2000/svg" role="img" aria-label="BulgariTech">
  <circle cx="546" cy="25" r="22" fill="#3BAA3B"/>
  <path d="M7.04545 154V60.9091H45.8636C52.8333 60.9091 58.6667 61.8939 63.3636 63.8636C68.0909 65.8333 71.6364 68.5909 74 72.1364C76.3939 75.6818 77.5909 79.7879 77.5909 84.4545C77.5909 88 76.8485 91.1667 75.3636 93.9545C73.8788 96.7121 71.8333 99 69.2273 100.818C66.6212 102.636 63.6061 103.909 60.1818 104.636V105.545C63.9394 105.727 67.4091 106.742 70.5909 108.591C73.803 110.439 76.3788 113.015 78.3182 116.318C80.2576 119.591 81.2273 123.47 81.2273 127.955C81.2273 132.955 79.9545 137.424 77.4091 141.364C74.8636 145.273 71.1818 148.364 66.3636 150.636C61.5455 152.879 55.697 154 48.8182 154H7.04545ZM29.5455 135.864H43.4545C48.3333 135.864 51.9242 134.939 54.2273 133.091C56.5606 131.242 57.7273 128.667 57.7273 125.364C57.7273 122.97 57.1667 120.909 56.0455 119.182C54.9242 117.424 53.3333 116.076 51.2727 115.136C49.2121 114.167 46.7424 113.682 43.8636 113.682H29.5455V135.864ZM29.5455 99.1818H42C44.4545 99.1818 46.6364 98.7727 48.5455 97.9545C50.4545 97.1364 51.9394 95.9545 53 94.4091C54.0909 92.8636 54.6364 91 54.6364 88.8182C54.6364 85.697 53.5303 83.2424 51.3182 81.4545C49.1061 79.6667 46.1212 78.7727 42.3636 78.7727H29.5455V99.1818ZM148.364 60.9091H170.818V120.955C170.818 127.894 169.167 133.939 165.864 139.091C162.561 144.212 157.955 148.182 152.045 151C146.136 153.788 139.273 155.182 131.455 155.182C123.545 155.182 116.636 153.788 110.727 151C104.818 148.182 100.227 144.212 96.9545 139.091C93.6818 133.939 92.0455 127.894 92.0455 120.955V60.9091H114.545V119C114.545 122.212 115.242 125.076 116.636 127.591C118.061 130.106 120.045 132.076 122.591 133.5C125.136 134.924 128.091 135.636 131.455 135.636C134.818 135.636 137.758 134.924 140.273 133.5C142.818 132.076 144.803 130.106 146.227 127.591C147.652 125.076 148.364 122.212 148.364 119V60.9091ZM184.92 154V60.9091H207.42V135.727H246.148V154H184.92ZM315.261 91.3182C314.746 89.4091 313.989 87.7273 312.989 86.2727C311.989 84.7879 310.761 83.5303 309.307 82.5C307.852 81.4697 306.186 80.697 304.307 80.1818C302.428 79.6364 300.367 79.3636 298.125 79.3636C293.61 79.3636 289.701 80.4545 286.398 82.6364C283.125 84.8182 280.595 88 278.807 92.1818C277.019 96.3333 276.125 101.379 276.125 107.318C276.125 113.288 276.989 118.379 278.716 122.591C280.443 126.803 282.943 130.015 286.216 132.227C289.489 134.439 293.458 135.545 298.125 135.545C302.246 135.545 305.731 134.879 308.58 133.545C311.458 132.182 313.64 130.258 315.125 127.773C316.61 125.288 317.352 122.364 317.352 119L321.534 119.5H298.898V103.091H339.034V115.409C339.034 123.742 337.261 130.879 333.716 136.818C330.201 142.758 325.352 147.318 319.17 150.5C313.019 153.682 305.943 155.273 297.943 155.273C289.064 155.273 281.261 153.348 274.534 149.5C267.807 145.652 262.564 140.167 258.807 133.045C255.049 125.894 253.17 117.409 253.17 107.591C253.17 99.9545 254.307 93.1818 256.58 87.2727C258.852 81.3333 262.019 76.303 266.08 72.1818C270.17 68.0606 274.898 64.9394 280.261 62.8182C285.655 60.697 291.458 59.6364 297.67 59.6364C303.064 59.6364 308.08 60.4091 312.716 61.9545C317.383 63.5 321.504 65.6818 325.08 68.5C328.686 71.3182 331.61 74.6667 333.852 78.5455C336.095 82.4242 337.489 86.6818 338.034 91.3182H315.261ZM369.557 154H345.375L376.784 60.9091H406.739L438.148 154H413.966L392.102 84.3636H391.375L369.557 154ZM366.33 117.364H416.875V134.455H366.33V117.364ZM448.17 154V60.9091H486.625C493.595 60.9091 499.61 62.1667 504.67 64.6818C509.761 67.1667 513.686 70.7424 516.443 75.4091C519.201 80.0455 520.58 85.5455 520.58 91.9091C520.58 98.3636 519.17 103.848 516.352 108.364C513.534 112.848 509.534 116.273 504.352 118.636C499.17 120.97 493.034 122.136 485.943 122.136H461.625V104.409H481.761C485.155 104.409 487.989 103.97 490.261 103.091C492.564 102.182 494.307 100.818 495.489 99C496.67 97.1515 497.261 94.7879 497.261 91.9091C497.261 89.0303 496.67 86.6515 495.489 84.7727C494.307 82.8636 492.564 81.4394 490.261 80.5C487.958 79.5303 485.125 79.0455 481.761 79.0455H470.67V154H448.17ZM500.58 111.455L523.761 154H499.216L476.489 111.455H500.58ZM555.42 60.9091V154H532.92V60.9091H555.42Z" fill="#0F172A"/>
  <path d="M577.727 68.5454V60.9091H645.227V68.5454H615.727V154H607.227V68.5454H577.727ZM680.784 155.455C674.269 155.455 668.633 153.939 663.875 150.909C659.117 147.848 655.436 143.621 652.83 138.227C650.254 132.803 648.966 126.561 648.966 119.5C648.966 112.47 650.254 106.227 652.83 100.773C655.436 95.2879 659.027 91 663.602 87.9091C668.208 84.7879 673.527 83.2273 679.557 83.2273C683.345 83.2273 686.996 83.9242 690.511 85.3182C694.027 86.6818 697.178 88.7879 699.966 91.6364C702.784 94.4545 705.011 98.0152 706.648 102.318C708.284 106.591 709.102 111.652 709.102 117.5V121.5H654.557V114.364H700.83C700.83 109.879 699.92 105.848 698.102 102.273C696.314 98.6667 693.814 95.8182 690.602 93.7273C687.42 91.6364 683.739 90.5909 679.557 90.5909C675.133 90.5909 671.239 91.7727 667.875 94.1364C664.511 96.5 661.875 99.6212 659.966 103.5C658.087 107.379 657.133 111.621 657.102 116.227V120.5C657.102 126.045 658.057 130.894 659.966 135.045C661.905 139.167 664.648 142.364 668.193 144.636C671.739 146.909 675.936 148.045 680.784 148.045C684.087 148.045 686.981 147.53 689.466 146.5C691.981 145.47 694.087 144.091 695.784 142.364C697.511 140.606 698.814 138.682 699.693 136.591L707.375 139.091C706.314 142.03 704.572 144.742 702.148 147.227C699.754 149.712 696.754 151.712 693.148 153.227C689.572 154.712 685.451 155.455 680.784 155.455ZM754.205 155.455C747.962 155.455 742.523 153.894 737.886 150.773C733.28 147.652 729.705 143.379 727.159 137.955C724.614 132.53 723.341 126.348 723.341 119.409C723.341 112.409 724.629 106.182 727.205 100.727C729.811 95.2727 733.417 91 738.023 87.9091C742.629 84.7879 747.977 83.2273 754.068 83.2273C758.735 83.2273 762.962 84.1364 766.75 85.9545C770.538 87.7424 773.659 90.2727 776.114 93.5455C778.598 96.7879 780.159 100.576 780.795 104.909H772.614C771.765 100.97 769.72 97.6061 766.477 94.8182C763.265 92 759.174 90.5909 754.205 90.5909C749.75 90.5909 745.811 91.803 742.386 94.2273C738.962 96.6212 736.28 99.9697 734.341 104.273C732.432 108.545 731.477 113.5 731.477 119.136C731.477 124.803 732.417 129.818 734.295 134.182C736.174 138.515 738.811 141.909 742.205 144.364C745.629 146.818 749.629 148.045 754.205 148.045C757.295 148.045 760.114 147.47 762.659 146.318C765.235 145.136 767.386 143.47 769.114 141.318C770.871 139.167 772.053 136.606 772.659 133.636H780.841C780.235 137.848 778.735 141.606 776.341 144.909C773.977 148.182 770.902 150.758 767.114 152.636C763.356 154.515 759.053 155.455 754.205 155.455ZM806.273 110.364V154H798.182V60.9091H806.273V95.1364H807C808.636 91.5303 811.167 88.6515 814.591 86.5C818.045 84.3485 822.409 83.2727 827.682 83.2727C832.409 83.2727 836.561 84.2424 840.136 86.1818C843.712 88.1212 846.5 90.9848 848.5 94.7727C850.5 98.5606 851.5 103.227 851.5 108.773V154H843.364V109.273C843.364 103.515 841.758 98.9848 838.545 95.6818C835.364 92.3485 831.061 90.6818 825.636 90.6818C821.909 90.6818 818.591 91.4697 815.682 93.0455C812.773 94.6212 810.47 96.8939 808.773 99.8636C807.106 102.803 806.273 106.303 806.273 110.364Z" fill="#0F172A"/>
</svg>
